<svg width="201" height="36" viewBox="0 0 201 36" fill="none" xmlns="http://www.w3.org/2000/svg">
<path d="M0.443182 0.0909081H8.18182L18.5455 25.3864H18.9545L29.3182 0.0909081H37.0568V35H30.9886V11.017H30.6648L21.017 34.8977H16.483L6.83523 10.9659H6.51136V35H0.443182V0.0909081ZM55.2614 35.5114C52.6364 35.5114 50.3693 34.9659 48.4602 33.875C46.5625 32.7727 45.1023 31.2159 44.0795 29.2045C43.0568 27.1818 42.5455 24.8011 42.5455 22.0625C42.5455 19.3693 43.0568 17.0057 44.0795 14.9716C45.1136 12.9261 46.5568 11.3352 48.4091 10.1989C50.2614 9.05114 52.4375 8.47727 54.9375 8.47727C56.5511 8.47727 58.0739 8.73864 59.5057 9.26136C60.9489 9.77273 62.2216 10.5682 63.3239 11.6477C64.4375 12.7273 65.3125 14.1023 65.9489 15.7727C66.5852 17.4318 66.9034 19.4091 66.9034 21.7045V23.5966H45.4432V19.4375H60.9886C60.9773 18.2557 60.7216 17.2045 60.2216 16.2841C59.7216 15.3523 59.0227 14.6193 58.125 14.0852C57.2386 13.5511 56.2045 13.2841 55.0227 13.2841C53.7614 13.2841 52.6534 13.5909 51.6989 14.2045C50.7443 14.8068 50 15.6023 49.4659 16.5909C48.9432 17.5682 48.6761 18.642 48.6648 19.8125V23.4432C48.6648 24.9659 48.9432 26.2727 49.5 27.3636C50.0568 28.4432 50.8352 29.2727 51.8352 29.8523C52.8352 30.4205 54.0057 30.7045 55.3466 30.7045C56.2443 30.7045 57.0568 30.5795 57.7841 30.3295C58.5114 30.0682 59.142 29.6875 59.6761 29.1875C60.2102 28.6875 60.6136 28.0682 60.8864 27.3295L66.6477 27.9773C66.2841 29.5 65.5909 30.8295 64.5682 31.9659C63.5568 33.0909 62.2614 33.9659 60.6818 34.5909C59.1023 35.2045 57.2955 35.5114 55.2614 35.5114ZM83.544 35.5114C80.9304 35.5114 78.6861 34.9375 76.8111 33.7898C74.9474 32.642 73.5099 31.0568 72.4986 29.0341C71.4986 27 70.9986 24.6591 70.9986 22.0114C70.9986 19.3523 71.5099 17.0057 72.5327 14.9716C73.5554 12.9261 74.9986 11.3352 76.8622 10.1989C78.7372 9.05114 80.9531 8.47727 83.5099 8.47727C85.6349 8.47727 87.5156 8.86932 89.152 9.65341C90.7997 10.4261 92.1122 11.5227 93.0895 12.9432C94.0668 14.3523 94.6236 16 94.7599 17.8864H88.8622C88.6236 16.625 88.0554 15.5739 87.1577 14.733C86.2713 13.8807 85.0838 13.4545 83.5952 13.4545C82.3338 13.4545 81.2259 13.7955 80.2713 14.4773C79.3168 15.1477 78.5724 16.1136 78.0384 17.375C77.5156 18.6364 77.2543 20.1477 77.2543 21.9091C77.2543 23.6932 77.5156 25.2273 78.0384 26.5114C78.5611 27.7841 79.294 28.767 80.2372 29.4602C81.1918 30.142 82.3111 30.483 83.5952 30.483C84.5043 30.483 85.3168 30.3125 86.0327 29.9716C86.7599 29.6193 87.3679 29.1136 87.8565 28.4545C88.3452 27.7955 88.6804 26.9943 88.8622 26.0511H94.7599C94.6122 27.9034 94.0668 29.5455 93.1236 30.9773C92.1804 32.3977 90.8963 33.5114 89.2713 34.3182C87.6463 35.1136 85.7372 35.5114 83.544 35.5114ZM105.997 19.6591V35H99.8267V0.0909081H105.861V13.267H106.168C106.781 11.7898 107.73 10.625 109.014 9.77273C110.31 8.90909 111.957 8.47727 113.957 8.47727C115.776 8.47727 117.361 8.85795 118.713 9.61932C120.065 10.3807 121.111 11.4943 121.849 12.9602C122.599 14.4261 122.974 16.2159 122.974 18.3295V35H116.804V19.2841C116.804 17.5227 116.349 16.1534 115.44 15.1761C114.543 14.1875 113.281 13.6932 111.656 13.6932C110.565 13.6932 109.588 13.9318 108.724 14.4091C107.872 14.875 107.202 15.5511 106.713 16.4375C106.236 17.3239 105.997 18.3977 105.997 19.6591Z" fill="#17DC42"/>
<path d="M135.435 19.6591V35H129.264V8.81818H135.162V13.267H135.469C136.071 11.8011 137.031 10.6364 138.349 9.77273C139.679 8.90909 141.321 8.47727 143.276 8.47727C145.082 8.47727 146.656 8.86364 147.997 9.63636C149.349 10.4091 150.395 11.5284 151.134 12.9943C151.884 14.4602 152.253 16.2386 152.241 18.3295V35H146.071V19.2841C146.071 17.5341 145.616 16.1648 144.707 15.1761C143.81 14.1875 142.565 13.6932 140.974 13.6932C139.895 13.6932 138.935 13.9318 138.094 14.4091C137.264 14.875 136.611 15.5511 136.134 16.4375C135.668 17.3239 135.435 18.3977 135.435 19.6591ZM170.105 35.5114C167.48 35.5114 165.213 34.9659 163.304 33.875C161.406 32.7727 159.946 31.2159 158.923 29.2045C157.901 27.1818 157.389 24.8011 157.389 22.0625C157.389 19.3693 157.901 17.0057 158.923 14.9716C159.957 12.9261 161.401 11.3352 163.253 10.1989C165.105 9.05114 167.281 8.47727 169.781 8.47727C171.395 8.47727 172.918 8.73864 174.349 9.26136C175.793 9.77273 177.065 10.5682 178.168 11.6477C179.281 12.7273 180.156 14.1023 180.793 15.7727C181.429 17.4318 181.747 19.4091 181.747 21.7045V23.5966H160.287V19.4375H175.832C175.821 18.2557 175.565 17.2045 175.065 16.2841C174.565 15.3523 173.866 14.6193 172.969 14.0852C172.082 13.5511 171.048 13.2841 169.866 13.2841C168.605 13.2841 167.497 13.5909 166.543 14.2045C165.588 14.8068 164.844 15.6023 164.31 16.5909C163.787 17.5682 163.52 18.642 163.509 19.8125V23.4432C163.509 24.9659 163.787 26.2727 164.344 27.3636C164.901 28.4432 165.679 29.2727 166.679 29.8523C167.679 30.4205 168.849 30.7045 170.19 30.7045C171.088 30.7045 171.901 30.5795 172.628 30.3295C173.355 30.0682 173.986 29.6875 174.52 29.1875C175.054 28.6875 175.457 28.0682 175.73 27.3295L181.491 27.9773C181.128 29.5 180.435 30.8295 179.412 31.9659C178.401 33.0909 177.105 33.9659 175.526 34.5909C173.946 35.2045 172.139 35.5114 170.105 35.5114ZM200.041 8.81818V13.5909H184.99V8.81818H200.041ZM188.706 2.54545H194.876V27.125C194.876 27.9545 195.001 28.5909 195.251 29.0341C195.513 29.4659 195.854 29.7614 196.274 29.9205C196.695 30.0795 197.161 30.1591 197.672 30.1591C198.058 30.1591 198.411 30.1307 198.729 30.0739C199.058 30.017 199.308 29.9659 199.479 29.9205L200.518 34.7443C200.189 34.858 199.717 34.983 199.104 35.1193C198.501 35.2557 197.763 35.3352 196.888 35.358C195.342 35.4034 193.95 35.1705 192.712 34.6591C191.473 34.1364 190.49 33.3295 189.763 32.2386C189.047 31.1477 188.695 29.7841 188.706 28.1477V2.54545Z" fill="#EB0C0C"/>
</svg>
